<svg width="10" height="10" viewBox="0 0 10 10" fill="none" xmlns="http://www.w3.org/2000/svg">
<path d="M5.4829 0.518603L6.61077 2.80396C6.6892 2.96291 6.84085 3.07305 7.01627 3.0985L9.53839 3.46499C9.98019 3.52924 10.1564 4.072 9.83688 4.38344L8.01189 6.16233C7.88507 6.28602 7.82708 6.46437 7.85712 6.63896L8.28786 9.15085C8.36337 9.59078 7.90155 9.9262 7.50647 9.71865L5.25073 8.53279C5.09387 8.45039 4.90635 8.45039 4.74948 8.53279L2.49375 9.71865C2.09867 9.92641 1.63684 9.59078 1.71235 9.15085L2.1431 6.63896C2.17314 6.46437 2.11515 6.28602 1.98832 6.16233L0.163334 4.38344C-0.156232 4.0718 0.0200295 3.52903 0.461832 3.46499L2.98394 3.0985C3.15937 3.07305 3.31102 2.96291 3.38945 2.80396L4.51732 0.518603C4.71465 0.118311 5.28536 0.118311 5.4829 0.518603Z" fill="#DFE6E9"/>
</svg>
